<svg width="22" height="16" viewBox="0 0 22 16" fill="none" xmlns="http://www.w3.org/2000/svg">
<path fill-rule="evenodd" clip-rule="evenodd" d="M0 0H24.7345V1.77667H0V0Z" fill="#0D5EAF"/>
<path fill-rule="evenodd" clip-rule="evenodd" d="M0 1.77666H24.7345V3.55332H0V1.77666Z" fill="white"/>
<path fill-rule="evenodd" clip-rule="evenodd" d="M0 3.55333H24.7345V5.33H0V3.55333Z" fill="#0D5EAF"/>
<path fill-rule="evenodd" clip-rule="evenodd" d="M0 5.32999H24.7345V7.10665H0V5.32999Z" fill="white"/>
<path fill-rule="evenodd" clip-rule="evenodd" d="M0 7.10664H24.7345V8.88331H0V7.10664Z" fill="#0D5EAF"/>
<path fill-rule="evenodd" clip-rule="evenodd" d="M0 8.88332H24.7345V10.66H0V8.88332Z" fill="white"/>
<path fill-rule="evenodd" clip-rule="evenodd" d="M0 10.66H24.7345V12.4367H0V10.66Z" fill="#0D5EAF"/>
<path fill-rule="evenodd" clip-rule="evenodd" d="M0 12.4367H24.7345V14.2134H0V12.4367Z" fill="white"/>
<path fill-rule="evenodd" clip-rule="evenodd" d="M0 14.2133H24.7345V15.99H0V14.2133ZM0 0H9.16093V8.88333H0V0Z" fill="#0D5EAF"/>
<path fill-rule="evenodd" clip-rule="evenodd" d="M3.66443 0H5.49662V8.88333H3.66443V0Z" fill="white"/>
<path fill-rule="evenodd" clip-rule="evenodd" d="M0 3.55333H9.16094V5.33H0V3.55333Z" fill="white"/>
</svg>
